<svg xmlns="http://www.w3.org/2000/svg" xmlns:xlink="http://www.w3.org/1999/xlink" version="1.1" width="256" height="256" viewBox="0 0 256 256" xml:space="preserve">

<defs>
</defs>
<g style="stroke: none; stroke-width: 0; stroke-dasharray: none; stroke-linecap: butt; stroke-linejoin: miter; stroke-miterlimit: 10; fill: none; fill-rule: nonzero; opacity: 1;" transform="translate(1.4065934065934016 1.4065934065934016) scale(2.81 2.81)" >
	<path d="M 87.616 63.234 l -0.001 0 c -1.098 -0.455 -1.183 -1.47 -1.183 -1.771 c 0 -0.301 0.085 -1.316 1.183 -1.771 c 0.553 -0.229 0.984 -0.66 1.213 -1.213 s 0.229 -1.162 0 -1.715 l -1.46 -3.524 c -0.473 -1.141 -1.785 -1.686 -2.929 -1.212 c -1.099 0.455 -1.877 -0.203 -2.089 -0.415 c -0.213 -0.213 -0.87 -0.991 -0.415 -2.089 c 0.229 -0.553 0.229 -1.162 0 -1.715 c -0.229 -0.553 -0.66 -0.984 -1.213 -1.213 l -3.524 -1.46 c -1.141 -0.472 -2.454 0.072 -2.928 1.213 c -0.455 1.097 -1.47 1.182 -1.771 1.182 s -1.316 -0.085 -1.771 -1.183 c -0.229 -0.553 -0.66 -0.984 -1.213 -1.213 c -0.553 -0.229 -1.162 -0.229 -1.716 0 l -3.523 1.459 c -0.553 0.229 -0.984 0.66 -1.213 1.213 c -0.229 0.553 -0.229 1.162 0 1.715 c 0.455 1.098 -0.203 1.877 -0.415 2.089 c -0.212 0.213 -0.99 0.871 -2.089 0.416 c -0.553 -0.229 -1.162 -0.229 -1.716 0 c -0.553 0.229 -0.984 0.66 -1.213 1.213 l -1.459 3.523 c -0.229 0.553 -0.229 1.162 0 1.716 c 0.229 0.553 0.66 0.984 1.213 1.213 c 1.097 0.455 1.183 1.471 1.183 1.771 s -0.085 1.316 -1.184 1.771 c -1.141 0.473 -1.685 1.787 -1.212 2.928 l 1.459 3.524 c 0.229 0.553 0.66 0.984 1.213 1.213 c 0.553 0.229 1.162 0.229 1.715 0 c 1.097 -0.454 1.876 0.203 2.089 0.416 c 0.212 0.212 0.87 0.991 0.415 2.089 c -0.473 1.141 0.071 2.455 1.213 2.929 l 3.524 1.46 c 0.277 0.114 0.567 0.172 0.858 0.172 c 0.291 0 0.581 -0.057 0.858 -0.172 c 0.553 -0.229 0.984 -0.66 1.213 -1.213 c 0.455 -1.098 1.471 -1.183 1.771 -1.183 l 0 0 c 0.3 0 1.316 0.085 1.771 1.184 c 0.473 1.141 1.787 1.683 2.928 1.212 l 3.525 -1.46 c 1.141 -0.473 1.684 -1.787 1.212 -2.928 c -0.455 -1.098 0.203 -1.877 0.416 -2.089 c 0.213 -0.213 0.99 -0.871 2.089 -0.415 c 1.142 0.471 2.454 -0.072 2.928 -1.213 l 1.46 -3.524 C 89.3 65.02 88.756 63.707 87.616 63.234 z M 72.499 67.65 c -3.412 0 -6.187 -2.776 -6.187 -6.187 c 0 -3.412 2.776 -6.187 6.187 -6.187 s 6.187 2.776 6.187 6.187 C 78.687 64.874 75.911 67.65 72.499 67.65 z" style="stroke: none; stroke-width: 1; stroke-dasharray: none; stroke-linecap: butt; stroke-linejoin: miter; stroke-miterlimit: 10; fill: rgb(255,226,122); fill-rule: nonzero; opacity: 1;" transform=" matrix(1 0 0 1 0 0) " stroke-linecap="round" />
	<path d="M 45 44.512 L 45 44.512 c -8.114 0 -14.692 -6.578 -14.692 -14.692 v -8.643 c 0 -8.114 6.578 -14.692 14.692 -14.692 h 0 c 8.114 0 14.692 6.578 14.692 14.692 v 8.643 C 59.692 37.934 53.114 44.512 45 44.512 z" style="stroke: none; stroke-width: 1; stroke-dasharray: none; stroke-linecap: butt; stroke-linejoin: miter; stroke-miterlimit: 10; fill: rgb(255,200,159); fill-rule: nonzero; opacity: 1;" transform=" matrix(1 0 0 1 0 0) " stroke-linecap="round" />
	<path d="M 68.119 83.515 V 67.631 c 0 -12.768 -10.351 -23.119 -23.119 -23.119 S 21.881 54.863 21.881 67.631 v 15.884 H 68.119 z" style="stroke: none; stroke-width: 1; stroke-dasharray: none; stroke-linecap: butt; stroke-linejoin: miter; stroke-miterlimit: 10; fill: rgb(74,128,170); fill-rule: nonzero; opacity: 1;" transform=" matrix(1 0 0 1 0 0) " stroke-linecap="round" />
	<path d="M 45 45.341 c -8.617 0 -15.626 -7.01 -15.626 -15.626 v -8.604 c 0 -8.617 7.01 -15.626 15.626 -15.626 c 8.616 0 15.626 7.01 15.626 15.626 v 8.604 C 60.626 38.331 53.616 45.341 45 45.341 z M 45 7.485 c -7.514 0 -13.626 6.113 -13.626 13.626 v 8.604 c 0 7.513 6.113 13.626 13.626 13.626 s 13.626 -6.113 13.626 -13.626 v -8.604 C 58.626 13.598 52.514 7.485 45 7.485 z" style="stroke: none; stroke-width: 1; stroke-dasharray: none; stroke-linecap: butt; stroke-linejoin: miter; stroke-miterlimit: 10; fill: rgb(0,0,0); fill-rule: nonzero; opacity: 1;" transform=" matrix(1 0 0 1 0 0) " stroke-linecap="round" />
	<path d="M 68.014 84.515 H 21.985 c -0.552 0 -1 -0.447 -1 -1 V 81.88 c 0 -0.553 0.448 -1 1 -1 s 1 0.447 1 1 v 0.635 h 44.029 v -15.16 c 0 -12.138 -9.876 -22.014 -22.014 -22.014 c -4.471 0 -8.775 1.333 -12.447 3.853 c -0.456 0.314 -1.078 0.197 -1.39 -0.258 c -0.313 -0.456 -0.197 -1.078 0.258 -1.391 c 4.006 -2.751 8.701 -4.205 13.578 -4.205 c 13.242 0 24.014 10.772 24.014 24.014 v 16.16 C 69.014 84.068 68.567 84.515 68.014 84.515 z" style="stroke: none; stroke-width: 1; stroke-dasharray: none; stroke-linecap: butt; stroke-linejoin: miter; stroke-miterlimit: 10; fill: rgb(0,0,0); fill-rule: nonzero; opacity: 1;" transform=" matrix(1 0 0 1 0 0) " stroke-linecap="round" />
	<path d="M 76.494 78.763 c -0.422 0 -0.835 -0.083 -1.229 -0.246 c -0.794 -0.329 -1.412 -0.947 -1.739 -1.74 c -0.189 -0.455 -0.554 -0.551 -0.826 -0.551 c -0.553 0 -1 -0.447 -1 -1 s 0.447 -1 1 -1 c 0.935 0 2.127 0.469 2.674 1.786 c 0.124 0.3 0.357 0.533 0.657 0.657 c 0.302 0.126 0.629 0.124 0.929 0 l 3.481 -1.442 c 0.299 -0.124 0.532 -0.357 0.657 -0.658 c 0.124 -0.3 0.124 -0.629 0 -0.927 c -0.547 -1.321 -0.033 -2.496 0.63 -3.156 c 0.654 -0.658 1.828 -1.173 3.15 -0.626 c 0.302 0.123 0.631 0.123 0.931 0 c 0.299 -0.124 0.532 -0.357 0.656 -0.657 l 1.441 -3.481 c 0.124 -0.299 0.124 -0.628 0 -0.929 c -0.125 -0.3 -0.357 -0.533 -0.656 -0.657 c -1.317 -0.546 -1.787 -1.738 -1.787 -2.673 c 0 -0.935 0.469 -2.128 1.786 -2.674 c 0.3 -0.124 0.533 -0.357 0.657 -0.657 c 0.124 -0.3 0.124 -0.63 0 -0.93 l -1.441 -3.48 c -0.124 -0.3 -0.357 -0.533 -0.658 -0.657 c -0.299 -0.125 -0.629 -0.125 -0.928 0 c -1.32 0.544 -2.494 0.033 -3.154 -0.628 c -0.661 -0.657 -1.174 -1.833 -0.627 -3.153 c 0.124 -0.3 0.124 -0.629 0 -0.929 c -0.124 -0.3 -0.357 -0.533 -0.658 -0.657 l -3.48 -1.441 c -0.299 -0.125 -0.631 -0.124 -0.928 -0.001 c -0.301 0.125 -0.534 0.357 -0.657 0.656 c -0.547 1.319 -1.74 1.788 -2.675 1.788 s -2.127 -0.469 -2.673 -1.785 c -0.256 -0.619 -0.97 -0.913 -1.587 -0.658 l -3.481 1.442 c -0.3 0.124 -0.532 0.356 -0.655 0.655 c -0.21 0.512 -0.798 0.752 -1.306 0.544 c -0.511 -0.211 -0.754 -0.796 -0.544 -1.306 c 0.328 -0.795 0.946 -1.413 1.74 -1.742 l 3.48 -1.442 c 1.639 -0.677 3.521 0.103 4.2 1.74 c 0.199 0.479 0.603 0.551 0.825 0.551 c 0.224 0 0.627 -0.071 0.826 -0.552 c 0.327 -0.792 0.944 -1.411 1.739 -1.74 c 0.793 -0.329 1.665 -0.329 2.46 0 l 3.48 1.442 c 0.794 0.329 1.412 0.946 1.74 1.739 c 0.329 0.794 0.329 1.668 0 2.461 c -0.199 0.48 0.034 0.814 0.191 0.971 c 0.195 0.195 0.518 0.385 0.976 0.196 c 0.792 -0.328 1.665 -0.328 2.461 0 c 0.793 0.329 1.41 0.946 1.739 1.738 l 1.441 3.481 c 0.329 0.794 0.329 1.667 0 2.461 c -0.329 0.794 -0.947 1.412 -1.74 1.739 c -0.479 0.199 -0.551 0.603 -0.551 0.826 c 0 0.223 0.071 0.626 0.553 0.825 c 0.792 0.329 1.409 0.946 1.738 1.74 c 0.328 0.794 0.328 1.668 0 2.46 l -1.441 3.48 c -0.328 0.792 -0.945 1.41 -1.738 1.739 c -0.798 0.329 -1.669 0.328 -2.461 0 c -0.481 -0.2 -0.816 0.034 -0.972 0.192 c -0.161 0.16 -0.396 0.495 -0.196 0.976 c 0.328 0.791 0.328 1.665 0 2.459 c -0.329 0.794 -0.946 1.412 -1.739 1.74 l -3.481 1.442 C 77.33 78.68 76.916 78.763 76.494 78.763 z M 72.699 68.575 c -0.553 0 -1 -0.447 -1 -1 s 0.447 -1 1 -1 c 2.819 0 5.113 -2.293 5.113 -5.112 c 0 -2.819 -2.294 -5.113 -5.113 -5.113 c -0.807 0 -1.578 0.183 -2.292 0.544 c -0.494 0.249 -1.096 0.051 -1.344 -0.441 c -0.249 -0.493 -0.052 -1.095 0.441 -1.344 c 0.982 -0.496 2.087 -0.759 3.194 -0.759 c 3.922 0 7.113 3.191 7.113 7.113 S 76.621 68.575 72.699 68.575 z" style="stroke: none; stroke-width: 1; stroke-dasharray: none; stroke-linecap: butt; stroke-linejoin: miter; stroke-miterlimit: 10; fill: rgb(0,0,0); fill-rule: nonzero; opacity: 1;" transform=" matrix(1 0 0 1 0 0) " stroke-linecap="round" />
	<path d="M 32.418 63.234 l -0.001 0 c -1.098 -0.455 -1.183 -1.47 -1.183 -1.771 c 0 -0.301 0.085 -1.316 1.183 -1.771 c 0.553 -0.229 0.984 -0.66 1.213 -1.213 s 0.229 -1.162 0 -1.715 l -1.46 -3.524 c -0.473 -1.141 -1.785 -1.686 -2.929 -1.212 c -1.099 0.455 -1.877 -0.203 -2.089 -0.415 c -0.213 -0.213 -0.87 -0.991 -0.415 -2.089 c 0.229 -0.553 0.229 -1.162 0 -1.715 c -0.229 -0.553 -0.66 -0.984 -1.213 -1.213 L 22 45.135 c -1.141 -0.472 -2.454 0.072 -2.928 1.213 c -0.455 1.097 -1.47 1.182 -1.771 1.182 s -1.316 -0.085 -1.771 -1.183 c -0.229 -0.553 -0.66 -0.984 -1.213 -1.213 c -0.553 -0.229 -1.162 -0.229 -1.716 0 l -3.523 1.459 c -0.553 0.229 -0.984 0.66 -1.213 1.213 c -0.229 0.553 -0.229 1.162 0 1.715 c 0.455 1.098 -0.203 1.877 -0.415 2.089 c -0.212 0.213 -0.99 0.871 -2.089 0.416 c -0.553 -0.229 -1.162 -0.229 -1.716 0 c -0.553 0.229 -0.984 0.66 -1.213 1.213 l -1.459 3.523 c -0.229 0.553 -0.229 1.162 0 1.716 c 0.229 0.553 0.66 0.984 1.213 1.213 c 1.097 0.455 1.183 1.471 1.183 1.771 s -0.085 1.316 -1.184 1.771 C 1.044 63.707 0.5 65.02 0.973 66.161 l 1.459 3.524 c 0.229 0.553 0.66 0.984 1.213 1.213 c 0.553 0.229 1.162 0.229 1.715 0 c 1.097 -0.454 1.876 0.203 2.089 0.416 c 0.212 0.212 0.87 0.991 0.415 2.089 c -0.473 1.141 0.071 2.455 1.213 2.929 l 3.524 1.46 c 0.277 0.114 0.567 0.172 0.858 0.172 s 0.581 -0.057 0.858 -0.172 c 0.553 -0.229 0.984 -0.66 1.213 -1.213 c 0.455 -1.098 1.471 -1.183 1.771 -1.183 l 0 0 c 0.3 0 1.316 0.085 1.771 1.184 c 0.473 1.141 1.787 1.683 2.928 1.212 l 3.525 -1.46 c 1.141 -0.473 1.684 -1.787 1.212 -2.928 c -0.455 -1.098 0.203 -1.877 0.416 -2.089 c 0.213 -0.213 0.99 -0.871 2.089 -0.415 c 1.142 0.471 2.454 -0.072 2.928 -1.213 l 1.46 -3.524 C 34.102 65.02 33.558 63.707 32.418 63.234 z M 17.301 67.65 c -3.412 0 -6.187 -2.776 -6.187 -6.187 c 0 -3.412 2.776 -6.187 6.187 -6.187 s 6.187 2.776 6.187 6.187 C 23.489 64.874 20.713 67.65 17.301 67.65 z" style="stroke: none; stroke-width: 1; stroke-dasharray: none; stroke-linecap: butt; stroke-linejoin: miter; stroke-miterlimit: 10; fill: rgb(255,226,122); fill-rule: nonzero; opacity: 1;" transform=" matrix(1 0 0 1 0 0) " stroke-linecap="round" />
	<path d="M 21.097 78.763 c -0.423 0 -0.837 -0.083 -1.23 -0.246 c -0.793 -0.329 -1.411 -0.946 -1.739 -1.739 c -0.189 -0.456 -0.553 -0.552 -0.826 -0.552 s -0.637 0.096 -0.826 0.553 c -0.679 1.636 -2.564 2.417 -4.198 1.738 l -3.483 -1.442 c -1.637 -0.68 -2.416 -2.562 -1.738 -4.199 c 0.199 -0.481 -0.035 -0.815 -0.192 -0.971 c -0.196 -0.197 -0.52 -0.388 -0.977 -0.197 c -1.638 0.675 -3.52 -0.104 -4.199 -1.738 l -1.442 -3.482 c -0.328 -0.792 -0.328 -1.665 0.001 -2.459 c 0.329 -0.794 0.946 -1.411 1.738 -1.739 c 0.457 -0.189 0.552 -0.554 0.552 -0.826 c 0 -0.225 -0.071 -0.627 -0.551 -0.826 c -0.792 -0.327 -1.411 -0.945 -1.74 -1.74 c -0.328 -0.791 -0.329 -1.665 0 -2.459 l 1.442 -3.481 c 0.68 -1.638 2.563 -2.415 4.201 -1.738 c 0.481 0.201 0.814 -0.035 0.971 -0.192 c 0.16 -0.16 0.395 -0.495 0.196 -0.976 c -0.329 -0.795 -0.328 -1.668 0 -2.461 c 0.328 -0.793 0.946 -1.411 1.74 -1.739 l 3.48 -1.442 c 1.638 -0.676 3.52 0.103 4.2 1.74 c 0.199 0.479 0.603 0.551 0.826 0.551 c 0.223 0 0.627 -0.071 0.826 -0.552 c 0.328 -0.792 0.945 -1.411 1.739 -1.74 c 0.793 -0.329 1.666 -0.329 2.46 0 l 3.48 1.442 c 0.794 0.329 1.412 0.947 1.74 1.74 c 0.329 0.793 0.328 1.667 0 2.46 c -0.199 0.479 0.035 0.814 0.192 0.971 c 0.194 0.196 0.521 0.386 0.975 0.196 c 0.792 -0.328 1.666 -0.328 2.461 0 c 0.793 0.329 1.411 0.946 1.739 1.739 l 1.442 3.48 c 0.328 0.794 0.328 1.667 0 2.46 c -0.33 0.795 -0.948 1.413 -1.741 1.741 c -0.479 0.198 -0.55 0.602 -0.55 0.825 c 0 0.223 0.072 0.626 0.552 0.825 c 1.638 0.68 2.417 2.563 1.739 4.199 l -1.441 3.481 c -0.328 0.792 -0.946 1.41 -1.739 1.739 c -0.795 0.329 -1.669 0.327 -2.461 0 c -0.479 -0.2 -0.816 0.036 -0.973 0.193 c -0.159 0.159 -0.394 0.494 -0.194 0.975 c 0.328 0.792 0.328 1.665 0 2.459 c -0.329 0.794 -0.946 1.412 -1.739 1.74 l -3.481 1.442 C 21.933 78.68 21.519 78.763 21.097 78.763 z M 17.302 74.226 c 0.935 0 2.127 0.469 2.673 1.786 c 0.124 0.3 0.357 0.533 0.657 0.657 c 0.3 0.125 0.629 0.125 0.929 0 l 3.481 -1.442 c 0.299 -0.124 0.532 -0.357 0.656 -0.658 c 0.125 -0.3 0.125 -0.629 0.001 -0.928 c -0.546 -1.319 -0.034 -2.494 0.628 -3.154 c 0.658 -0.659 1.832 -1.173 3.152 -0.627 c 0.3 0.123 0.63 0.123 0.931 0 c 0.299 -0.124 0.532 -0.357 0.656 -0.657 l 1.441 -3.481 c 0.256 -0.618 -0.038 -1.329 -0.657 -1.586 c -1.317 -0.545 -1.787 -1.738 -1.787 -2.673 c 0 -0.935 0.469 -2.128 1.786 -2.674 c 0.3 -0.124 0.533 -0.357 0.658 -0.657 c 0.124 -0.3 0.124 -0.63 0 -0.931 l -1.441 -3.479 c -0.124 -0.3 -0.357 -0.533 -0.657 -0.657 c -0.3 -0.125 -0.63 -0.125 -0.929 0 c -1.318 0.546 -2.494 0.033 -3.155 -0.629 c -0.66 -0.657 -1.173 -1.832 -0.626 -3.152 c 0.124 -0.3 0.124 -0.629 0 -0.929 s -0.357 -0.533 -0.658 -0.657 l -3.48 -1.441 c -0.299 -0.124 -0.628 -0.123 -0.929 -0.001 c -0.3 0.125 -0.533 0.358 -0.657 0.657 c -0.546 1.318 -1.739 1.787 -2.674 1.787 c -0.935 0 -2.127 -0.469 -2.673 -1.785 c -0.257 -0.618 -0.969 -0.915 -1.587 -0.658 l -3.481 1.442 c -0.3 0.124 -0.533 0.356 -0.656 0.656 c -0.125 0.301 -0.125 0.63 0 0.931 c 0.546 1.317 0.033 2.493 -0.629 3.153 c -0.657 0.659 -1.832 1.173 -3.151 0.627 c -0.619 -0.255 -1.331 0.037 -1.587 0.657 l -1.442 3.48 c -0.124 0.3 -0.124 0.629 0 0.928 c 0.124 0.302 0.357 0.534 0.656 0.657 c 1.32 0.547 1.789 1.741 1.787 2.677 c 0 0.933 -0.469 2.126 -1.786 2.671 l -0.001 0.001 c -0.298 0.124 -0.531 0.357 -0.655 0.657 c -0.125 0.3 -0.125 0.63 -0.001 0.928 l 1.442 3.481 c 0.256 0.618 0.968 0.913 1.587 0.657 c 1.32 -0.549 2.494 -0.033 3.155 0.63 c 0.659 0.654 1.173 1.829 0.626 3.151 c -0.256 0.618 0.039 1.329 0.657 1.586 l 3.481 1.442 c 0.617 0.256 1.33 -0.039 1.586 -0.657 C 15.173 74.696 16.367 74.226 17.302 74.226 z M 17.302 68.575 c -3.922 0 -7.113 -3.19 -7.113 -7.112 s 3.191 -7.113 7.113 -7.113 c 3.922 0 7.113 3.191 7.113 7.113 S 21.223 68.575 17.302 68.575 z M 17.302 56.349 c -2.819 0 -5.113 2.294 -5.113 5.113 c 0 2.819 2.294 5.112 5.113 5.112 s 5.113 -2.293 5.113 -5.112 C 22.414 58.643 20.121 56.349 17.302 56.349 z" style="stroke: none; stroke-width: 1; stroke-dasharray: none; stroke-linecap: butt; stroke-linejoin: miter; stroke-miterlimit: 10; fill: rgb(0,0,0); fill-rule: nonzero; opacity: 1;" transform=" matrix(1 0 0 1 0 0) " stroke-linecap="round" />
</g>
</svg>